<?xml version="1.0" encoding="UTF-8"?><!DOCTYPE svg PUBLIC "-//W3C//DTD SVG 1.1//EN" "http://www.w3.org/Graphics/SVG/1.1/DTD/svg11.dtd"><svg xmlns="http://www.w3.org/2000/svg" xmlns:xlink="http://www.w3.org/1999/xlink"><defs><path id="a" d="M18 6l.366.34.316-.34-.316-.34L18 6zM0 6.5h18v-1H0v1zm18.366-.84l-5.571-6-.733.68 5.572 6 .732-.68zm-.732 0l-5.572 6 .733.68 5.571-6-.732-.68z"/><path id="a" d="M18 6l.366.34.316-.34-.316-.34L18 6zM0 6.5h18v-1H0v1zm18.366-.84l-5.571-6-.733.68 5.572 6 .732-.68zm-.732 0l-5.572 6 .733.68 5.571-6-.732-.68z"/><path id="b" d="M0 0h3.24l2.667 7.495L8.765 0h1.969l2.795 7.431L16.196 0h3.24l-4.828 13.211h-2.096L9.718 5.716l-2.922 7.495H4.764L0 0z"/><path id="c" d="M13.91 7.876H3.24c.126.952.57 1.715 1.206 2.223.699.571 1.524.825 2.54.825 1.207 0 2.287-.444 3.176-1.27l2.795 1.334c-.699 1.016-1.524 1.715-2.477 2.16-.953.444-2.096.698-3.43.698-2.096 0-3.747-.635-5.081-1.969C.635 10.543 0 8.956 0 6.987c0-2.033.635-3.684 1.969-5.018C3.239.635 4.891 0 6.859 0c2.097 0 3.748.635 5.082 1.969C13.274 3.303 13.91 5.08 13.91 7.24v.635zm-3.303-2.604c-.19-.762-.635-1.334-1.27-1.779a3.85 3.85 0 0 0-2.223-.698c-.953 0-1.715.254-2.414.762-.445.317-.826.889-1.207 1.715h7.114z"/><path id="d" d="M13.465 3.112l-2.731 1.525c-.508-.572-1.016-.89-1.524-1.144a4.943 4.943 0 0 0-1.779-.317c-1.27 0-2.223.38-2.985 1.08-.762.762-1.143 1.714-1.143 2.858 0 1.143.38 2.032 1.08 2.73.762.7 1.714 1.08 2.921 1.08 1.461 0 2.668-.508 3.493-1.524l2.604 1.778c-1.397 1.842-3.43 2.732-5.97 2.732-2.35 0-4.128-.699-5.462-2.033C.635 10.48 0 8.892 0 7.05c0-1.27.318-2.477.953-3.557S2.477 1.588 3.62.953C4.764.318 6.034 0 7.431 0c1.334 0 2.477.254 3.557.762.953.635 1.842 1.397 2.477 2.35z"/><path id="e" d="M0 0h3.303v18.292H0V0z"/><path id="f" d="M2.096 0c.572 0 1.08.19 1.524.635.445.445.635.953.635 1.524 0 .572-.19 1.08-.635 1.525-.38.444-.889.635-1.46.635-.572 0-1.08-.19-1.525-.635A2.064 2.064 0 0 1 0 2.159C0 1.588.19 1.08.635.7c.381-.51.89-.7 1.461-.7zM.445 5.399h3.302v13.21H.445V5.4z"/><path id="g" d="M13.465 3.112l-2.731 1.525c-.508-.572-1.016-.89-1.524-1.144a4.943 4.943 0 0 0-1.779-.317c-1.27 0-2.223.38-2.985 1.08-.762.762-1.143 1.714-1.143 2.858 0 1.143.38 2.032 1.08 2.73.762.7 1.714 1.08 2.921 1.08 1.461 0 2.668-.508 3.493-1.524l2.604 1.778c-1.397 1.842-3.43 2.732-5.97 2.732-2.35 0-4.128-.699-5.462-2.033C.635 10.48 0 8.892 0 7.05c0-1.27.318-2.477.953-3.557S2.477 1.588 3.62.953C4.764.318 6.034 0 7.431 0c1.334 0 2.477.254 3.557.762.953.635 1.842 1.397 2.477 2.35z"/><path id="h" d="M.064 0h3.302v10.543l4.89-5.462h4.13l-5.717 6.352 6.351 6.86H8.892l-5.59-6.098v6.097H0V0h.064z"/><path id="a" d="M0 0h3.24l2.667 7.495L8.765 0h1.969l2.795 7.431L16.196 0h3.24l-4.828 13.211h-2.096L9.718 5.716l-2.922 7.495H4.764L0 0z"/><path id="b" d="M13.91 7.876H3.24c.126.952.57 1.715 1.206 2.223.699.571 1.524.825 2.54.825 1.207 0 2.287-.444 3.176-1.27l2.795 1.334c-.699 1.016-1.524 1.715-2.477 2.16-.953.444-2.096.698-3.43.698-2.096 0-3.747-.635-5.081-1.969C.635 10.543 0 8.956 0 6.987c0-2.033.635-3.684 1.969-5.018C3.239.635 4.891 0 6.859 0c2.097 0 3.748.635 5.082 1.969C13.274 3.303 13.91 5.08 13.91 7.24v.635zm-3.303-2.604c-.19-.762-.635-1.334-1.27-1.779a3.85 3.85 0 0 0-2.223-.698c-.953 0-1.715.254-2.414.762-.445.317-.826.889-1.207 1.715h7.114z"/><path id="c" d="M13.465 3.112l-2.731 1.525c-.508-.572-1.016-.89-1.524-1.144a4.943 4.943 0 0 0-1.779-.317c-1.27 0-2.223.38-2.985 1.08-.762.762-1.143 1.714-1.143 2.858 0 1.143.38 2.032 1.08 2.73.762.7 1.714 1.08 2.921 1.08 1.461 0 2.668-.508 3.493-1.524l2.604 1.778c-1.397 1.842-3.43 2.732-5.97 2.732-2.35 0-4.128-.699-5.462-2.033C.635 10.48 0 8.892 0 7.05c0-1.27.318-2.477.953-3.557S2.477 1.588 3.62.953C4.764.318 6.034 0 7.431 0c1.334 0 2.477.254 3.557.762.953.635 1.842 1.397 2.477 2.35z"/><path id="d" d="M0 0h3.303v18.292H0V0z"/><path id="e" d="M2.096 0c.572 0 1.08.19 1.524.635.445.445.635.953.635 1.524 0 .572-.19 1.08-.635 1.525-.38.444-.889.635-1.46.635-.572 0-1.08-.19-1.525-.635A2.064 2.064 0 0 1 0 2.159C0 1.588.19 1.08.635.7c.381-.51.89-.7 1.461-.7zM.445 5.399h3.302v13.21H.445V5.4z"/><path id="f" d="M13.465 3.112l-2.731 1.525c-.508-.572-1.016-.89-1.524-1.144a4.943 4.943 0 0 0-1.779-.317c-1.27 0-2.223.38-2.985 1.08-.762.762-1.143 1.714-1.143 2.858 0 1.143.38 2.032 1.08 2.73.762.7 1.714 1.08 2.921 1.08 1.461 0 2.668-.508 3.493-1.524l2.604 1.778c-1.397 1.842-3.43 2.732-5.97 2.732-2.35 0-4.128-.699-5.462-2.033C.635 10.48 0 8.892 0 7.05c0-1.27.318-2.477.953-3.557S2.477 1.588 3.62.953C4.764.318 6.034 0 7.431 0c1.334 0 2.477.254 3.557.762.953.635 1.842 1.397 2.477 2.35z"/><path id="g" d="M.064 0h3.302v10.543l4.89-5.462h4.13l-5.717 6.352 6.351 6.86H8.892l-5.59-6.098v6.097H0V0h.064z"/><style>.cls-2{fill:#000c24}</style><path id="a" d="M96 48c0 26.51-21.49 48-48 48S0 74.51 0 48 21.49 0 48 0s48 21.49 48 48z"/><path id="b" d="M21 0l18.187 31.5H2.813L21 0z"/></defs><symbol id="arrow-right"><use fill="#000C24" transform="translate(0 1)" xlink:href="#a"/></symbol><symbol id="icons"/><symbol id="logo" viewBox="0 0 90 19"><title>logo</title><use fill="#FFF" transform="translate(0 5.4)" xlink:href="#a"/><use fill="#FFF" transform="translate(19.9 5.08)" xlink:href="#b"/><use fill="#FFF" transform="translate(35.4 4.95)" xlink:href="#c"/><use fill="#FFF" transform="translate(50.8 .32)" xlink:href="#d"/><use fill="#FFF" transform="translate(56.3)" xlink:href="#e"/><use fill="#FFF" transform="translate(62.1 4.95)" xlink:href="#f"/><use fill="#FFF" transform="translate(77 .32)" xlink:href="#g"/></symbol><symbol id="map-marker" viewBox="0 0 32.12 55.2"><title>map-marker</title><path d="M16.94 59.61c.39-7.58 4.54-19.85 10.57-27.54 3.28-4.22 4.82-8.33 4.82-10.81A15.6 15.6 0 0 0 16.86 5.59 15.6 15.6 0 0 0 1.39 21.26c0 2.48 1.5 6.59 4.82 10.81 6 7.73 10.18 20 10.57 27.54z" class="cls-2" transform="translate(-.8 -5)"/><path d="M17.53 60.2h-1.3v-.55c-.36-7.26-4.38-19.45-10.46-27.23C2.1 27.77.8 23.62.8 21.26A16.19 16.19 0 0 1 16.86 5a16.19 16.19 0 0 1 16.06 16.26c0 2.36-1.3 6.51-4.93 11.16-6.08 7.78-10.11 19.93-10.46 27.23v.55zm-.67-54A15 15 0 0 0 2 21.26c0 2 1.23 6 4.66 10.41 5.17 6.59 8.88 16.3 10.22 23.68 1.32-7.35 5.03-17.09 10.2-23.68 3.43-4.42 4.65-8.36 4.65-10.41A15 15 0 0 0 16.86 6.18z" class="cls-2" transform="translate(-.8 -5)"/></symbol><symbol id="play"><title>Play</title><use fill="#FFF" fill-opacity=".5" xlink:href="#a"/><use fill="#FFF" transform="rotate(90 21 48)" xlink:href="#b"/></symbol></svg>